<?xml version="1.0" standalone="no"?>
<!DOCTYPE svg PUBLIC "-//W3C//DTD SVG 20010904//EN"
 "http://www.w3.org/TR/2001/REC-SVG-20010904/DTD/svg10.dtd">
<svg version="1.0" xmlns="http://www.w3.org/2000/svg"
 width="1200.000000pt" height="1280.000000pt" viewBox="0 0 1200.000000 1280.000000"
 preserveAspectRatio="xMidYMid meet">
<g transform="translate(0.000000,1280.000000) scale(0.100000,-0.100000)"
fill="#000000" stroke="none">
<path d="M8525 12790 c-22 -4 -94 -13 -160 -19 -66 -7 -123 -15 -128 -20 -16
-16 -77 -604 -77 -750 0 -39 -5 -74 -12 -83 -7 -9 -49 -24 -93 -33 -44 -10
-111 -29 -150 -42 -92 -34 -375 -166 -447 -210 -34 -20 -63 -31 -70 -27 -7 4
-158 126 -336 272 -177 145 -326 262 -331 260 -5 -2 -63 -47 -128 -100 -133
-109 -328 -311 -457 -472 -76 -95 -85 -111 -73 -125 8 -9 51 -63 98 -121 46
-58 161 -198 256 -313 95 -114 173 -210 173 -214 0 -3 -18 -35 -41 -71 -53
-83 -140 -261 -167 -337 -16 -48 -82 -259 -97 -311 -2 -6 -97 -19 -237 -33
-343 -32 -586 -63 -603 -75 -36 -27 -57 -436 -35 -671 14 -151 32 -264 44
-279 7 -9 70 -19 191 -30 443 -39 621 -57 631 -60 6 -2 14 -23 18 -47 4 -23
15 -63 25 -88 10 -25 35 -98 55 -162 39 -121 120 -293 187 -393 21 -32 39 -62
39 -67 0 -5 -91 -118 -202 -251 -226 -272 -263 -317 -301 -369 l-27 -36 61
-79 c154 -200 362 -408 558 -558 57 -44 66 -48 84 -36 27 17 330 267 494 407
72 62 140 113 151 113 11 0 66 -26 123 -59 127 -71 296 -140 448 -181 101 -27
151 -45 151 -53 0 -65 86 -822 95 -836 2 -5 70 -14 150 -21 172 -15 616 -8
740 12 l79 13 8 35 c4 19 21 193 38 385 17 193 34 368 38 390 9 48 14 51 181
100 149 43 341 128 460 202 73 46 89 53 105 43 10 -6 75 -60 145 -120 149
-127 501 -410 511 -410 3 0 42 26 86 58 113 83 537 534 583 621 9 16 -19 55
-201 273 -116 139 -237 283 -269 319 -33 37 -59 74 -59 83 0 10 27 70 59 134
80 157 157 353 183 464 17 71 25 92 42 98 12 5 77 13 146 19 394 33 686 65
692 74 6 11 10 37 30 222 16 159 21 364 9 435 -6 36 -15 119 -21 185 -6 67
-16 125 -23 131 -7 7 -181 27 -422 49 -322 29 -413 40 -422 52 -7 9 -19 47
-28 85 -34 149 -150 430 -235 570 -11 18 -20 43 -20 55 0 14 97 140 264 344
202 246 263 326 256 338 -21 39 -152 187 -273 309 -110 112 -356 329 -401 354
-12 7 -295 -214 -530 -415 -71 -60 -134 -110 -140 -111 -6 0 -108 47 -226 106
-197 99 -327 148 -452 173 -31 6 -25 -29 -63 365 -34 348 -54 493 -67 501 -12
8 -41 11 -223 30 -135 14 -391 20 -440 9z m530 -2104 c246 -73 484 -243 646
-460 380 -508 288 -1257 -201 -1659 -251 -206 -527 -299 -843 -284 -381 17
-697 187 -927 497 -267 360 -313 865 -114 1263 58 116 121 204 222 308 189
197 362 299 592 350 72 16 119 18 310 15 210 -3 231 -5 315 -30z"/>
<path d="M8511 10515 c-256 -56 -495 -216 -634 -424 -139 -208 -193 -415 -176
-672 28 -421 351 -808 769 -921 74 -19 108 -22 255 -22 195 1 271 16 412 83
112 54 192 110 290 204 107 103 172 191 227 308 133 283 125 644 -19 918 -136
259 -423 471 -713 527 -93 18 -326 17 -411 -1z m366 -241 c108 -22 194 -59
295 -126 143 -96 244 -228 295 -385 20 -62 27 -106 31 -212 10 -276 -52 -438
-235 -611 -141 -134 -272 -198 -450 -221 -210 -27 -421 37 -590 180 -179 150
-268 331 -280 567 -9 182 32 333 131 483 60 90 117 147 207 207 178 118 392
160 596 118z"/>
<path d="M4680 8329 c-39 -101 -118 -316 -176 -479 -57 -162 -110 -311 -117
-330 l-13 -35 -179 -6 c-283 -10 -557 -49 -742 -105 -62 -19 -117 -34 -121
-34 -5 0 -51 60 -102 133 -160 227 -543 752 -554 759 -12 8 -93 -22 -213 -78
-51 -24 -96 -44 -100 -44 -5 0 -60 -30 -123 -66 -63 -37 -162 -94 -220 -127
-189 -108 -430 -288 -430 -322 0 -13 54 -131 337 -738 l115 -247 -86 -90 c-47
-50 -111 -121 -141 -158 -30 -37 -80 -96 -111 -132 -66 -77 -208 -289 -253
-377 -17 -35 -35 -63 -39 -63 -4 0 -147 24 -317 54 -477 84 -767 128 -775 119
-11 -12 -102 -241 -143 -359 -41 -118 -104 -420 -146 -704 -11 -69 -22 -132
-25 -140 -5 -13 69 -45 381 -164 214 -82 445 -171 516 -199 l127 -49 0 -132
c1 -242 28 -444 101 -741 22 -88 39 -164 39 -170 0 -5 -17 -22 -38 -36 -202
-139 -816 -585 -832 -604 -24 -28 161 -404 334 -680 74 -119 213 -319 268
-388 l23 -28 175 81 c423 197 808 370 824 370 10 0 76 -55 148 -123 163 -154
249 -218 473 -355 127 -77 181 -116 183 -130 2 -11 -17 -143 -42 -294 -25
-150 -62 -387 -82 -526 -31 -214 -35 -255 -23 -263 70 -45 421 -156 704 -223
171 -41 494 -101 500 -94 14 18 261 668 350 923 22 61 44 113 49 117 6 4 81 8
166 8 253 0 427 25 697 101 l147 41 26 -29 c14 -16 161 -221 327 -455 l303
-426 170 78 c226 104 358 175 514 277 137 89 346 245 383 285 l21 23 -78 175
c-42 96 -139 308 -215 470 -75 162 -142 309 -148 327 -10 32 -8 34 79 128 173
185 323 386 415 557 28 51 57 100 65 108 16 17 -8 20 599 -80 237 -40 449 -74
471 -77 l41 -5 33 83 c43 113 151 448 188 584 25 92 73 344 96 512 6 41 5 43
-31 61 -48 25 -246 100 -643 247 -173 64 -325 123 -337 131 -22 14 -23 20 -23
172 0 226 -30 446 -96 705 -14 53 -24 107 -22 119 2 15 72 71 232 185 190 136
618 455 649 483 17 15 -130 329 -249 536 -114 199 -363 544 -391 544 -20 0
-313 -131 -643 -287 -168 -80 -317 -148 -332 -150 -24 -5 -43 10 -156 119
-130 127 -301 262 -427 336 -66 39 -155 99 -196 132 -21 17 -29 -40 91 715 27
176 53 336 56 357 l5 36 -153 60 c-182 71 -397 142 -431 142 -14 0 -42 7 -63
16 -40 17 -419 97 -515 109 l-57 7 -72 -183z m-227 -2484 c492 -64 905 -323
1146 -718 108 -176 198 -400 232 -572 9 -46 14 -139 14 -270 -1 -182 -3 -211
-29 -320 -79 -341 -202 -578 -406 -784 -238 -241 -567 -409 -909 -466 -293
-49 -679 20 -982 176 -454 235 -776 717 -829 1244 -28 276 54 655 200 920 214
389 637 690 1088 774 180 34 306 38 475 16z"/>
<path d="M4150 5613 c-162 -17 -316 -65 -480 -149 -364 -185 -567 -447 -675
-869 -73 -285 -70 -499 12 -743 83 -248 299 -528 524 -678 412 -274 922 -309
1354 -91 364 182 623 515 707 908 18 85 22 136 22 284 0 163 -2 190 -27 288
-92 366 -326 690 -627 867 -221 131 -568 209 -810 183z m242 -328 c146 -16
339 -88 469 -175 183 -123 348 -361 411 -591 20 -73 23 -106 22 -249 -1 -136
-5 -179 -22 -244 -48 -175 -178 -389 -299 -494 -210 -181 -396 -260 -639 -269
-143 -6 -226 6 -378 54 -290 91 -503 300 -625 610 -70 180 -84 415 -36 606 21
79 90 226 146 308 157 233 456 415 740 448 72 8 95 8 211 -4z"/>
</g>
</svg>
